# MagicaVoxel @ Ephtracy

# group
g Lcouch

# material
mtllib Lcouch.mtl
usemtl palette

# normals
vn -1 0 0
vn 1 0 0
vn 0 0 1
vn 0 0 -1
vn 0 -1 0
vn 0 1 0

# texcoords
vt 0.279297 0.5
vt 0.310547 0.5
vt 0.642578 0.5
vt 0.646484 0.5

# verts
v -19 0 16
v -19 0 14
v -19 0 -8
v -19 0 -10
v -19 0 -14
v -19 0 -16
v -19 3 16
v -19 3 14
v -19 3 -8
v -19 3 -10
v -19 3 -14
v -19 3 -16
v -19 9 16
v -19 9 15
v -19 10 15
v -19 10 14
v -19 11 14
v -19 11 -16
v -15 5 -12
v -15 5 -13
v -15 6 -12
v -15 6 -13
v -15 8 -13
v -15 8 -14
v -15 9 -13
v -15 9 -14
v -14 5 -11
v -14 5 -12
v -14 6 -11
v -14 6 -12
v -14 9 -13
v -14 9 -14
v -14 10 -13
v -14 10 -14
v -13 0 16
v -13 0 15
v -13 0 14
v -13 0 -8
v -13 0 -9
v -13 0 -10
v -13 0 -14
v -13 0 -15
v -13 0 -16
v -13 3 16
v -13 3 15
v -13 3 14
v -13 3 -8
v -13 3 -9
v -13 3 -10
v -13 3 -14
v -13 3 -15
v -13 3 -16
v -13 5 -10
v -13 5 -11
v -13 6 -10
v -13 6 -11
v -12 5 -9
v -12 5 -10
v -12 6 -9
v -12 6 -10
v -11 4 -8
v -11 4 -9
v -11 5 -8
v -11 5 -9
v 2 4 -8
v 2 4 -9
v 2 5 -8
v 2 5 -9
v 2 5 -13
v 2 6 -9
v 2 6 -13
v 2 6 -14
v 2 8 -13
v 2 8 -14
v 3 8 -13
v 3 8 -14
v 3 9 -13
v 3 9 -14
v 4 9 -13
v 4 9 -14
v 4 10 -13
v 4 10 -14
v 17 0 -8
v 17 0 -9
v 17 0 -10
v 17 0 -14
v 17 0 -15
v 17 0 -16
v 17 3 -8
v 17 3 -9
v 17 3 -10
v 17 3 -14
v 17 3 -15
v 17 3 -16
v 17 5 -8
v 17 5 -9
v 17 6 -9
v 17 6 -13
v 17 7 -8
v 17 7 -13
v 18 7 -9
v 18 7 -14
v 18 8 -9
v 18 8 -14
v -17 0 16
v -17 0 15
v -17 0 14
v -17 0 -8
v -17 0 -9
v -17 0 -10
v -17 0 -14
v -17 0 -15
v -17 0 -16
v -17 3 16
v -17 3 15
v -17 3 14
v -17 3 -8
v -17 3 -9
v -17 3 -10
v -17 3 -14
v -17 3 -15
v -17 3 -16
v -17 6 3
v -17 6 2
v -17 8 15
v -17 8 14
v -17 8 13
v -17 8 4
v -17 8 3
v -17 8 2
v -17 8 1
v -17 8 -12
v -17 8 -14
v -17 9 15
v -17 9 13
v -17 9 12
v -17 9 5
v -17 9 4
v -17 9 1
v -17 9 -0
v -17 9 -11
v -17 9 -12
v -17 10 15
v -17 10 14
v -17 10 12
v -17 10 5
v -17 10 -0
v -17 10 -11
v -17 11 14
v -17 11 -14
v -16 5 3
v -16 5 2
v -16 5 -12
v -16 5 -13
v -16 6 14
v -16 6 3
v -16 6 2
v -16 6 -12
v -16 8 14
v -16 8 13
v -16 8 4
v -16 8 3
v -16 8 2
v -16 8 1
v -16 8 -12
v -16 8 -13
v -16 9 13
v -16 9 12
v -16 9 5
v -16 9 4
v -16 9 1
v -16 9 -0
v -16 9 -11
v -16 9 -12
v -16 10 12
v -16 10 5
v -16 10 -0
v -16 10 -11
v -15 5 -11
v -15 5 -12
v -15 6 -11
v -15 6 -12
v -14 5 -10
v -14 5 -11
v -14 6 -10
v -14 6 -11
v -13 5 -9
v -13 5 -10
v -13 6 -9
v -13 6 -10
v -12 4 3
v -12 4 2
v -12 4 -8
v -12 4 -9
v -12 5 14
v -12 5 3
v -12 5 2
v -12 5 -8
v -12 6 14
v -12 6 3
v -12 6 2
v -12 6 -9
v -12 8 16
v -12 8 15
v -12 9 16
v -12 9 15
v -11 0 16
v -11 0 14
v -11 0 -8
v -11 0 -10
v -11 0 -14
v -11 0 -16
v -11 3 16
v -11 3 14
v -11 3 -8
v -11 3 -10
v -11 3 -14
v -11 3 -16
v -11 4 14
v -11 4 3
v -11 4 2
v -11 4 -8
v -11 5 14
v -11 5 3
v -11 5 2
v -11 5 -8
v -11 8 16
v -11 8 14
v -1 9 -13
v -1 9 -14
v -1 10 -13
v -1 10 -14
v 0 8 -13
v 0 8 -14
v 0 9 -13
v 0 9 -14
v 1 4 -8
v 1 4 -9
v 1 5 -8
v 1 5 -9
v 1 5 -13
v 1 6 -9
v 1 6 -13
v 1 6 -14
v 1 8 -13
v 1 8 -14
v 15 9 -13
v 15 9 -14
v 15 10 -13
v 15 10 -14
v 16 8 -13
v 16 8 -14
v 16 9 -13
v 16 9 -14
v 17 7 -13
v 17 7 -14
v 17 8 -13
v 17 8 -14
v 17 10 -14
v 17 10 -16
v 17 11 -14
v 17 11 -16
v 18 9 -14
v 18 9 -16
v 18 10 -14
v 18 10 -16
v 19 0 -8
v 19 0 -10
v 19 0 -14
v 19 0 -16
v 19 3 -8
v 19 3 -10
v 19 3 -14
v 19 3 -16
v 19 7 -8
v 19 7 -9
v 19 8 -9
v 19 8 -14
v 19 9 -14
v 19 9 -16
v -19 0 16
v -19 3 16
v -19 9 16
v -17 0 16
v -17 3 16
v -13 0 16
v -13 3 16
v -12 8 16
v -12 9 16
v -11 0 16
v -11 3 16
v -11 8 16
v -19 9 15
v -19 10 15
v -17 9 15
v -17 10 15
v -19 10 14
v -19 11 14
v -17 10 14
v -17 11 14
v -17 8 13
v -17 9 13
v -16 8 13
v -16 9 13
v -17 9 12
v -17 10 12
v -16 9 12
v -16 10 12
v -17 6 2
v -17 8 2
v -16 5 2
v -16 6 2
v -16 8 2
v -12 4 2
v -12 5 2
v -12 6 2
v -11 4 2
v -11 5 2
v -17 8 1
v -17 9 1
v -16 8 1
v -16 9 1
v -17 9 -0
v -17 10 -0
v -16 9 -0
v -16 10 -0
v -19 0 -8
v -19 3 -8
v -18 0 -8
v -18 3 -8
v -17 0 -8
v -17 3 -8
v -13 0 -8
v -13 3 -8
v -12 0 -8
v -12 3 -8
v -11 0 -8
v -11 3 -8
v -11 4 -8
v -11 5 -8
v 1 4 -8
v 1 5 -8
v 2 4 -8
v 2 5 -8
v 17 0 -8
v 17 3 -8
v 17 4 -8
v 17 5 -8
v 17 7 -8
v 19 0 -8
v 19 3 -8
v 19 7 -8
v -12 4 -9
v -12 6 -9
v -11 4 -9
v -11 5 -9
v 1 4 -9
v 1 5 -9
v 1 6 -9
v 2 4 -9
v 2 5 -9
v 2 6 -9
v 17 5 -9
v 17 6 -9
v 18 7 -9
v 18 8 -9
v 19 7 -9
v 19 8 -9
v -13 5 -10
v -13 6 -10
v -12 5 -10
v -12 6 -10
v -14 5 -11
v -14 6 -11
v -13 5 -11
v -13 6 -11
v -15 5 -12
v -15 6 -12
v -14 5 -12
v -14 6 -12
v -16 5 -13
v -16 8 -13
v -15 5 -13
v -15 6 -13
v -15 8 -13
v -15 9 -13
v -14 9 -13
v -14 10 -13
v -1 9 -13
v -1 10 -13
v 0 8 -13
v 0 9 -13
v 1 5 -13
v 1 6 -13
v 1 8 -13
v 2 5 -13
v 2 6 -13
v 2 8 -13
v 3 8 -13
v 3 9 -13
v 4 9 -13
v 4 10 -13
v 15 9 -13
v 15 10 -13
v 16 8 -13
v 16 9 -13
v 17 6 -13
v 17 7 -13
v 17 8 -13
v -19 0 -14
v -19 3 -14
v -18 0 -14
v -18 3 -14
v -17 0 -14
v -17 3 -14
v -17 8 -14
v -17 11 -14
v -15 8 -14
v -15 9 -14
v -14 9 -14
v -14 10 -14
v -13 0 -14
v -13 3 -14
v -12 0 -14
v -12 3 -14
v -11 0 -14
v -11 3 -14
v -1 9 -14
v -1 10 -14
v 0 8 -14
v 0 9 -14
v 1 6 -14
v 1 8 -14
v 2 6 -14
v 2 8 -14
v 3 8 -14
v 3 9 -14
v 4 9 -14
v 4 10 -14
v 15 9 -14
v 15 10 -14
v 16 8 -14
v 16 9 -14
v 17 0 -14
v 17 3 -14
v 17 7 -14
v 17 8 -14
v 17 10 -14
v 17 11 -14
v 18 0 -14
v 18 3 -14
v 18 7 -14
v 18 8 -14
v 18 9 -14
v 18 10 -14
v 19 0 -14
v 19 3 -14
v 19 8 -14
v 19 9 -14
v -17 8 15
v -17 9 15
v -12 8 15
v -12 9 15
v -19 0 14
v -19 3 14
v -18 0 14
v -18 3 14
v -17 0 14
v -17 3 14
v -16 6 14
v -16 8 14
v -13 0 14
v -13 3 14
v -12 0 14
v -12 3 14
v -12 5 14
v -12 6 14
v -11 0 14
v -11 3 14
v -11 5 14
v -11 8 14
v -17 9 5
v -17 10 5
v -16 9 5
v -16 10 5
v -17 8 4
v -17 9 4
v -16 8 4
v -16 9 4
v -17 6 3
v -17 8 3
v -16 5 3
v -16 6 3
v -16 8 3
v -12 4 3
v -12 5 3
v -12 6 3
v -11 4 3
v -11 5 3
v -12 4 -8
v -12 5 -8
v -11 4 -8
v -11 5 -8
v -13 5 -9
v -13 6 -9
v -12 5 -9
v -12 6 -9
v -19 0 -10
v -19 3 -10
v -17 0 -10
v -17 3 -10
v -14 5 -10
v -14 6 -10
v -13 0 -10
v -13 3 -10
v -13 5 -10
v -13 6 -10
v -11 0 -10
v -11 3 -10
v 17 0 -10
v 17 3 -10
v 18 0 -10
v 18 3 -10
v 19 0 -10
v 19 3 -10
v -17 9 -11
v -17 10 -11
v -16 9 -11
v -16 10 -11
v -15 5 -11
v -15 6 -11
v -14 5 -11
v -14 6 -11
v -17 8 -12
v -17 9 -12
v -16 5 -12
v -16 6 -12
v -16 8 -12
v -16 9 -12
v -15 5 -12
v -15 6 -12
v -19 0 -16
v -19 3 -16
v -19 11 -16
v -17 0 -16
v -17 3 -16
v -13 0 -16
v -13 3 -16
v -11 0 -16
v -11 3 -16
v 17 0 -16
v 17 3 -16
v 17 10 -16
v 17 11 -16
v 18 9 -16
v 18 10 -16
v 19 0 -16
v 19 3 -16
v 19 9 -16
v -19 0 16
v -17 0 16
v -13 0 16
v -11 0 16
v -18 0 15
v -17 0 15
v -13 0 15
v -12 0 15
v -19 0 14
v -18 0 14
v -17 0 14
v -13 0 14
v -12 0 14
v -11 0 14
v -19 0 -8
v -18 0 -8
v -17 0 -8
v -13 0 -8
v -12 0 -8
v -11 0 -8
v 17 0 -8
v 19 0 -8
v -18 0 -9
v -17 0 -9
v -13 0 -9
v -12 0 -9
v 17 0 -9
v 18 0 -9
v -19 0 -10
v -17 0 -10
v -13 0 -10
v -11 0 -10
v 17 0 -10
v 18 0 -10
v 19 0 -10
v -19 0 -14
v -18 0 -14
v -17 0 -14
v -13 0 -14
v -12 0 -14
v -11 0 -14
v 17 0 -14
v 18 0 -14
v 19 0 -14
v -18 0 -15
v -17 0 -15
v -13 0 -15
v -12 0 -15
v 17 0 -15
v 18 0 -15
v -19 0 -16
v -17 0 -16
v -13 0 -16
v -11 0 -16
v 17 0 -16
v 19 0 -16
v -17 3 16
v -13 3 16
v -17 3 15
v -13 3 15
v -19 3 14
v -18 3 14
v -17 3 14
v -13 3 14
v -12 3 14
v -11 3 14
v -19 3 -8
v -18 3 -8
v -17 3 -8
v -13 3 -8
v -12 3 -8
v -11 3 -8
v 17 3 -8
v -17 3 -9
v -13 3 -9
v 17 3 -9
v -19 3 -10
v -17 3 -10
v -13 3 -10
v -11 3 -10
v 17 3 -10
v 18 3 -10
v 19 3 -10
v -19 3 -14
v -18 3 -14
v -17 3 -14
v -13 3 -14
v -12 3 -14
v -11 3 -14
v 17 3 -14
v 18 3 -14
v 19 3 -14
v -17 3 -15
v -13 3 -15
v 17 3 -15
v -17 3 -16
v -13 3 -16
v -11 3 -16
v 17 3 -16
v -12 4 3
v -11 4 3
v -12 4 2
v -11 4 2
v -12 4 -8
v -11 4 -8
v 1 4 -8
v 2 4 -8
v -12 4 -9
v -11 4 -9
v 1 4 -9
v 2 4 -9
v -12 5 14
v -11 5 14
v -16 5 3
v -12 5 3
v -11 5 3
v -16 5 2
v -12 5 2
v -11 5 2
v -12 5 -8
v -11 5 -8
v 1 5 -8
v 2 5 -8
v 17 5 -8
v -13 5 -9
v -12 5 -9
v -11 5 -9
v 1 5 -9
v 2 5 -9
v 17 5 -9
v -14 5 -10
v -13 5 -10
v -12 5 -10
v -15 5 -11
v -14 5 -11
v -13 5 -11
v -16 5 -12
v -15 5 -12
v -14 5 -12
v -16 5 -13
v -15 5 -13
v 1 5 -13
v 2 5 -13
v -16 6 14
v -12 6 14
v -17 6 3
v -16 6 3
v -12 6 3
v -17 6 2
v -16 6 2
v -12 6 2
v -13 6 -9
v -12 6 -9
v 1 6 -9
v 2 6 -9
v 17 6 -9
v -14 6 -10
v -13 6 -10
v -12 6 -10
v -15 6 -11
v -14 6 -11
v -13 6 -11
v -16 6 -12
v -15 6 -12
v -14 6 -12
v -15 6 -13
v 1 6 -13
v 2 6 -13
v 17 6 -13
v 1 6 -14
v 2 6 -14
v 17 7 -8
v 19 7 -8
v 18 7 -9
v 19 7 -9
v 17 7 -13
v 17 7 -14
v 18 7 -14
v -12 8 16
v -11 8 16
v -17 8 15
v -12 8 15
v -17 8 14
v -16 8 14
v -11 8 14
v -17 8 13
v -16 8 13
v -17 8 4
v -16 8 4
v -17 8 3
v -16 8 3
v -17 8 2
v -16 8 2
v -17 8 1
v -16 8 1
v 18 8 -9
v 19 8 -9
v -17 8 -12
v -16 8 -12
v -16 8 -13
v -15 8 -13
v 0 8 -13
v 1 8 -13
v 2 8 -13
v 3 8 -13
v 16 8 -13
v 17 8 -13
v -17 8 -14
v -15 8 -14
v 0 8 -14
v 1 8 -14
v 2 8 -14
v 3 8 -14
v 16 8 -14
v 17 8 -14
v 18 8 -14
v 19 8 -14
v -19 9 16
v -12 9 16
v -19 9 15
v -17 9 15
v -12 9 15
v -17 9 13
v -16 9 13
v -17 9 12
v -16 9 12
v -17 9 5
v -16 9 5
v -17 9 4
v -16 9 4
v -17 9 1
v -16 9 1
v -17 9 -0
v -16 9 -0
v -17 9 -11
v -16 9 -11
v -17 9 -12
v -16 9 -12
v -15 9 -13
v -14 9 -13
v -1 9 -13
v 0 9 -13
v 3 9 -13
v 4 9 -13
v 15 9 -13
v 16 9 -13
v -15 9 -14
v -14 9 -14
v -1 9 -14
v 0 9 -14
v 3 9 -14
v 4 9 -14
v 15 9 -14
v 16 9 -14
v 18 9 -14
v 19 9 -14
v 18 9 -16
v 19 9 -16
v -19 10 15
v -17 10 15
v -19 10 14
v -17 10 14
v -17 10 12
v -16 10 12
v -17 10 5
v -16 10 5
v -17 10 -0
v -16 10 -0
v -17 10 -11
v -16 10 -11
v -14 10 -13
v -1 10 -13
v 4 10 -13
v 15 10 -13
v -14 10 -14
v -1 10 -14
v 4 10 -14
v 15 10 -14
v 17 10 -14
v 18 10 -14
v 17 10 -16
v 18 10 -16
v -19 11 14
v -17 11 14
v -17 11 -14
v 17 11 -14
v -19 11 -16
v 17 11 -16

# faces
f 7/1/1 2/1/1 1/1/1
f 8/1/1 2/1/1 7/1/1
f 9/1/1 4/1/1 3/1/1
f 10/1/1 4/1/1 9/1/1
f 11/1/1 6/1/1 5/1/1
f 12/1/1 6/1/1 11/1/1
f 13/4/1 10/4/1 9/4/1
f 13/4/1 8/4/1 7/4/1
f 13/4/1 12/4/1 11/4/1
f 13/4/1 11/4/1 10/4/1
f 13/4/1 9/4/1 8/4/1
f 14/4/1 12/4/1 13/4/1
f 15/4/1 12/4/1 14/4/1
f 16/4/1 12/4/1 15/4/1
f 17/4/1 12/4/1 16/4/1
f 18/4/1 12/4/1 17/4/1
f 21/3/1 20/3/1 19/3/1
f 22/3/1 20/3/1 21/3/1
f 25/3/1 24/3/1 23/3/1
f 26/3/1 24/3/1 25/3/1
f 29/3/1 28/3/1 27/3/1
f 30/3/1 28/3/1 29/3/1
f 33/3/1 32/3/1 31/3/1
f 34/3/1 32/3/1 33/3/1
f 44/1/1 36/1/1 35/1/1
f 45/2/1 37/2/1 36/2/1
f 45/1/1 36/1/1 44/1/1
f 46/2/1 37/2/1 45/2/1
f 47/2/1 39/2/1 38/2/1
f 48/1/1 40/1/1 39/1/1
f 48/2/1 39/2/1 47/2/1
f 49/1/1 40/1/1 48/1/1
f 50/2/1 42/2/1 41/2/1
f 51/1/1 43/1/1 42/1/1
f 51/2/1 42/2/1 50/2/1
f 52/1/1 43/1/1 51/1/1
f 55/3/1 54/3/1 53/3/1
f 56/3/1 54/3/1 55/3/1
f 59/3/1 58/3/1 57/3/1
f 60/3/1 58/3/1 59/3/1
f 63/3/1 62/3/1 61/3/1
f 64/3/1 62/3/1 63/3/1
f 67/3/1 66/3/1 65/3/1
f 68/3/1 66/3/1 67/3/1
f 70/3/1 69/3/1 68/3/1
f 71/3/1 69/3/1 70/3/1
f 73/3/1 72/3/1 71/3/1
f 74/3/1 72/3/1 73/3/1
f 77/3/1 76/3/1 75/3/1
f 78/3/1 76/3/1 77/3/1
f 81/3/1 80/3/1 79/3/1
f 82/3/1 80/3/1 81/3/1
f 89/1/1 84/1/1 83/1/1
f 90/2/1 85/2/1 84/2/1
f 90/1/1 84/1/1 89/1/1
f 91/2/1 85/2/1 90/2/1
f 92/2/1 87/2/1 86/2/1
f 93/1/1 88/1/1 87/1/1
f 93/2/1 87/2/1 92/2/1
f 94/1/1 88/1/1 93/1/1
f 97/4/1 96/4/1 95/4/1
f 99/4/1 97/4/1 95/4/1
f 99/4/1 98/4/1 97/4/1
f 100/4/1 98/4/1 99/4/1
f 103/4/1 102/4/1 101/4/1
f 104/4/1 102/4/1 103/4/1
f 105/1/2 106/1/2 114/1/2
f 106/2/2 107/2/2 115/2/2
f 114/1/2 106/1/2 115/1/2
f 115/2/2 107/2/2 116/2/2
f 108/2/2 109/2/2 117/2/2
f 109/1/2 110/1/2 118/1/2
f 117/2/2 109/2/2 118/2/2
f 118/1/2 110/1/2 119/1/2
f 111/2/2 112/2/2 120/2/2
f 112/1/2 113/1/2 121/1/2
f 120/2/2 112/2/2 121/2/2
f 121/1/2 113/1/2 122/1/2
f 123/4/2 124/4/2 129/4/2
f 129/4/2 124/4/2 130/4/2
f 126/4/2 127/4/2 134/4/2
f 125/4/2 126/4/2 134/4/2
f 134/4/2 127/4/2 135/4/2
f 130/4/2 131/4/2 138/4/2
f 128/4/2 129/4/2 138/4/2
f 129/4/2 130/4/2 138/4/2
f 138/4/2 131/4/2 139/4/2
f 132/4/2 133/4/2 142/4/2
f 135/4/2 136/4/2 143/4/2
f 134/4/2 135/4/2 143/4/2
f 143/4/2 136/4/2 144/4/2
f 144/4/2 136/4/2 145/4/2
f 139/4/2 140/4/2 146/4/2
f 137/4/2 138/4/2 146/4/2
f 138/4/2 139/4/2 146/4/2
f 146/4/2 140/4/2 147/4/2
f 141/4/2 142/4/2 148/4/2
f 144/4/2 145/4/2 149/4/2
f 147/4/2 148/4/2 149/4/2
f 146/4/2 147/4/2 149/4/2
f 145/4/2 146/4/2 149/4/2
f 148/4/2 142/4/2 150/4/2
f 149/4/2 148/4/2 150/4/2
f 142/4/2 133/4/2 150/4/2
f 151/3/2 152/3/2 156/3/2
f 156/3/2 152/3/2 157/3/2
f 153/3/2 154/3/2 158/3/2
f 155/3/2 156/3/2 159/3/2
f 159/3/2 156/3/2 160/3/2
f 160/3/2 156/3/2 161/3/2
f 161/3/2 156/3/2 162/3/2
f 157/3/2 158/3/2 163/3/2
f 163/3/2 158/3/2 164/3/2
f 158/3/2 154/3/2 165/3/2
f 164/3/2 158/3/2 165/3/2
f 165/3/2 154/3/2 166/3/2
f 160/3/2 161/3/2 167/3/2
f 167/3/2 161/3/2 168/3/2
f 168/3/2 161/3/2 169/3/2
f 169/3/2 161/3/2 170/3/2
f 164/3/2 165/3/2 171/3/2
f 171/3/2 165/3/2 172/3/2
f 172/3/2 165/3/2 173/3/2
f 173/3/2 165/3/2 174/3/2
f 168/3/2 169/3/2 175/3/2
f 175/3/2 169/3/2 176/3/2
f 172/3/2 173/3/2 177/3/2
f 177/3/2 173/3/2 178/3/2
f 179/3/2 180/3/2 181/3/2
f 181/3/2 180/3/2 182/3/2
f 183/3/2 184/3/2 185/3/2
f 185/3/2 184/3/2 186/3/2
f 187/3/2 188/3/2 189/3/2
f 189/3/2 188/3/2 190/3/2
f 191/3/2 192/3/2 196/3/2
f 196/3/2 192/3/2 197/3/2
f 193/3/2 194/3/2 198/3/2
f 195/3/2 196/3/2 199/3/2
f 199/3/2 196/3/2 200/3/2
f 197/3/2 198/3/2 201/3/2
f 198/3/2 194/3/2 202/3/2
f 201/3/2 198/3/2 202/3/2
f 203/4/2 204/4/2 205/4/2
f 205/4/2 204/4/2 206/4/2
f 207/1/2 208/1/2 213/1/2
f 213/1/2 208/1/2 214/1/2
f 209/1/2 210/1/2 215/1/2
f 215/1/2 210/1/2 216/1/2
f 211/1/2 212/1/2 217/1/2
f 217/1/2 212/1/2 218/1/2
f 213/4/2 214/4/2 219/4/2
f 214/4/2 215/4/2 219/4/2
f 219/4/2 215/4/2 220/4/2
f 220/4/2 215/4/2 221/4/2
f 221/4/2 215/4/2 222/4/2
f 213/4/2 219/4/2 223/4/2
f 219/3/2 220/3/2 223/3/2
f 223/3/2 220/3/2 224/3/2
f 221/3/2 222/3/2 225/3/2
f 225/3/2 222/3/2 226/3/2
f 213/4/2 223/4/2 227/4/2
f 227/4/2 223/4/2 228/4/2
f 229/3/2 230/3/2 231/3/2
f 231/3/2 230/3/2 232/3/2
f 233/3/2 234/3/2 235/3/2
f 235/3/2 234/3/2 236/3/2
f 237/3/2 238/3/2 239/3/2
f 239/3/2 238/3/2 240/3/2
f 240/3/2 241/3/2 242/3/2
f 242/3/2 241/3/2 243/3/2
f 243/3/2 244/3/2 245/3/2
f 245/3/2 244/3/2 246/3/2
f 247/3/2 248/3/2 249/3/2
f 249/3/2 248/3/2 250/3/2
f 251/3/2 252/3/2 253/3/2
f 253/3/2 252/3/2 254/3/2
f 255/3/2 256/3/2 257/3/2
f 257/3/2 256/3/2 258/3/2
f 259/4/2 260/4/2 261/4/2
f 261/4/2 260/4/2 262/4/2
f 263/4/2 264/4/2 265/4/2
f 265/4/2 264/4/2 266/4/2
f 267/1/2 268/1/2 271/1/2
f 271/1/2 268/1/2 272/1/2
f 269/1/2 270/1/2 273/1/2
f 273/1/2 270/1/2 274/1/2
f 271/4/2 272/4/2 275/4/2
f 272/4/2 273/4/2 275/4/2
f 273/4/2 274/4/2 275/4/2
f 275/4/2 274/4/2 276/4/2
f 276/4/2 274/4/2 277/4/2
f 277/4/2 274/4/2 278/4/2
f 278/4/2 274/4/2 279/4/2
f 279/4/2 274/4/2 280/4/2
f 284/1/3 282/1/3 281/1/3
f 285/4/3 283/4/3 282/4/3
f 285/1/3 282/1/3 284/1/3
f 287/4/3 283/4/3 285/4/3
f 288/4/3 283/4/3 287/4/3
f 289/4/3 283/4/3 288/4/3
f 290/1/3 287/1/3 286/1/3
f 291/4/3 288/4/3 287/4/3
f 291/1/3 287/1/3 290/1/3
f 292/4/3 288/4/3 291/4/3
f 295/4/3 294/4/3 293/4/3
f 296/4/3 294/4/3 295/4/3
f 299/4/3 298/4/3 297/4/3
f 300/4/3 298/4/3 299/4/3
f 303/3/3 302/3/3 301/3/3
f 304/3/3 302/3/3 303/3/3
f 307/3/3 306/3/3 305/3/3
f 308/3/3 306/3/3 307/3/3
f 312/3/3 310/3/3 309/3/3
f 313/3/3 310/3/3 312/3/3
f 315/3/3 312/3/3 311/3/3
f 316/3/3 312/3/3 315/3/3
f 317/3/3 315/3/3 314/3/3
f 318/3/3 315/3/3 317/3/3
f 321/3/3 320/3/3 319/3/3
f 322/3/3 320/3/3 321/3/3
f 325/3/3 324/3/3 323/3/3
f 326/3/3 324/3/3 325/3/3
f 329/1/3 328/1/3 327/1/3
f 330/1/3 328/1/3 329/1/3
f 331/2/3 330/2/3 329/2/3
f 332/2/3 330/2/3 331/2/3
f 335/2/3 334/2/3 333/2/3
f 336/2/3 334/2/3 335/2/3
f 337/1/3 336/1/3 335/1/3
f 338/1/3 336/1/3 337/1/3
f 341/3/3 340/3/3 339/3/3
f 341/4/3 339/4/3 338/4/3
f 342/3/3 340/3/3 341/3/3
f 343/4/3 341/4/3 338/4/3
f 346/4/3 343/4/3 338/4/3
f 347/3/3 344/3/3 343/3/3
f 347/4/3 343/4/3 346/4/3
f 348/3/3 344/3/3 347/3/3
f 350/1/3 346/1/3 345/1/3
f 351/4/3 348/4/3 347/4/3
f 351/1/3 346/1/3 350/1/3
f 351/4/3 349/4/3 348/4/3
f 351/4/3 347/4/3 346/4/3
f 352/4/3 349/4/3 351/4/3
f 355/3/3 354/3/3 353/3/3
f 356/3/3 354/3/3 355/3/3
f 358/3/3 354/3/3 356/3/3
f 359/3/3 354/3/3 358/3/3
f 360/3/3 358/3/3 357/3/3
f 361/3/3 358/3/3 360/3/3
f 363/3/3 362/3/3 361/3/3
f 364/3/3 362/3/3 363/3/3
f 367/4/3 366/4/3 365/4/3
f 368/4/3 366/4/3 367/4/3
f 371/3/3 370/3/3 369/3/3
f 372/3/3 370/3/3 371/3/3
f 375/3/3 374/3/3 373/3/3
f 376/3/3 374/3/3 375/3/3
f 379/3/3 378/3/3 377/3/3
f 380/3/3 378/3/3 379/3/3
f 383/3/3 382/3/3 381/3/3
f 384/3/3 382/3/3 383/3/3
f 385/3/3 382/3/3 384/3/3
f 387/3/3 386/3/3 385/3/3
f 387/3/3 385/3/3 384/3/3
f 389/3/3 387/3/3 384/3/3
f 389/3/3 388/3/3 387/3/3
f 390/3/3 388/3/3 389/3/3
f 391/3/3 389/3/3 384/3/3
f 392/3/3 389/3/3 391/3/3
f 394/3/3 391/3/3 384/3/3
f 395/3/3 391/3/3 394/3/3
f 396/3/3 394/3/3 393/3/3
f 397/3/3 394/3/3 396/3/3
f 399/3/3 398/3/3 397/3/3
f 401/3/3 400/3/3 399/3/3
f 403/3/3 401/3/3 399/3/3
f 403/3/3 402/3/3 401/3/3
f 404/3/3 402/3/3 403/3/3
f 405/3/3 399/3/3 397/3/3
f 405/3/3 403/3/3 399/3/3
f 406/3/3 403/3/3 405/3/3
f 407/3/3 405/3/3 397/3/3
f 408/3/3 405/3/3 407/3/3
f 409/3/3 405/3/3 408/3/3
f 412/1/3 411/1/3 410/1/3
f 413/1/3 411/1/3 412/1/3
f 414/2/3 413/2/3 412/2/3
f 415/2/3 413/2/3 414/2/3
f 418/4/3 417/4/3 416/4/3
f 419/4/3 417/4/3 418/4/3
f 420/4/3 417/4/3 419/4/3
f 421/4/3 417/4/3 420/4/3
f 424/2/3 423/2/3 422/2/3
f 425/2/3 423/2/3 424/2/3
f 426/1/3 425/1/3 424/1/3
f 427/1/3 425/1/3 426/1/3
f 429/4/3 417/4/3 421/4/3
f 431/4/3 429/4/3 428/4/3
f 433/4/3 431/4/3 430/4/3
f 434/4/3 433/4/3 432/4/3
f 435/4/3 431/4/3 433/4/3
f 435/4/3 433/4/3 434/4/3
f 436/4/3 431/4/3 435/4/3
f 437/4/3 429/4/3 431/4/3
f 437/4/3 431/4/3 436/4/3
f 438/4/3 429/4/3 437/4/3
f 439/4/3 417/4/3 429/4/3
f 439/4/3 429/4/3 438/4/3
f 441/4/3 417/4/3 439/4/3
f 443/4/3 441/4/3 440/4/3
f 447/4/3 443/4/3 442/4/3
f 448/4/3 417/4/3 441/4/3
f 448/4/3 441/4/3 443/4/3
f 448/4/3 443/4/3 447/4/3
f 449/4/3 417/4/3 448/4/3
f 450/2/3 445/2/3 444/2/3
f 451/2/3 445/2/3 450/2/3
f 452/4/3 447/4/3 446/4/3
f 452/4/3 448/4/3 447/4/3
f 453/4/3 448/4/3 452/4/3
f 454/4/3 448/4/3 453/4/3
f 455/4/3 448/4/3 454/4/3
f 456/1/3 451/1/3 450/1/3
f 457/1/3 451/1/3 456/1/3
f 458/4/3 454/4/3 453/4/3
f 459/4/3 454/4/3 458/4/3
f 460/4/4 461/4/4 462/4/4
f 462/4/4 461/4/4 463/4/4
f 464/1/4 465/1/4 466/1/4
f 466/1/4 465/1/4 467/1/4
f 466/2/4 467/2/4 468/2/4
f 468/2/4 467/2/4 469/2/4
f 472/2/4 473/2/4 474/2/4
f 474/2/4 473/2/4 475/2/4
f 470/4/4 471/4/4 477/4/4
f 474/1/4 475/1/4 478/1/4
f 478/1/4 475/1/4 479/1/4
f 476/4/4 477/4/4 480/4/4
f 477/4/4 471/4/4 481/4/4
f 480/4/4 477/4/4 481/4/4
f 482/3/4 483/3/4 484/3/4
f 484/3/4 483/3/4 485/3/4
f 486/3/4 487/3/4 488/3/4
f 488/3/4 487/3/4 489/3/4
f 490/3/4 491/3/4 493/3/4
f 493/3/4 491/3/4 494/3/4
f 492/3/4 493/3/4 496/3/4
f 496/3/4 493/3/4 497/3/4
f 495/3/4 496/3/4 498/3/4
f 498/3/4 496/3/4 499/3/4
f 500/3/4 501/3/4 502/3/4
f 502/3/4 501/3/4 503/3/4
f 504/3/4 505/3/4 506/3/4
f 506/3/4 505/3/4 507/3/4
f 508/1/4 509/1/4 510/1/4
f 510/1/4 509/1/4 511/1/4
f 512/3/4 513/3/4 516/3/4
f 516/3/4 513/3/4 517/3/4
f 514/1/4 515/1/4 518/1/4
f 518/1/4 515/1/4 519/1/4
f 520/2/4 521/2/4 522/2/4
f 522/2/4 521/2/4 523/2/4
f 522/1/4 523/1/4 524/1/4
f 524/1/4 523/1/4 525/1/4
f 526/3/4 527/3/4 528/3/4
f 528/3/4 527/3/4 529/3/4
f 530/3/4 531/3/4 532/3/4
f 532/3/4 531/3/4 533/3/4
f 534/3/4 535/3/4 538/3/4
f 538/3/4 535/3/4 539/3/4
f 536/3/4 537/3/4 540/3/4
f 540/3/4 537/3/4 541/3/4
f 542/1/4 543/1/4 545/1/4
f 543/4/4 544/4/4 546/4/4
f 545/1/4 543/1/4 546/1/4
f 546/4/4 544/4/4 548/4/4
f 547/1/4 548/1/4 549/1/4
f 548/4/4 544/4/4 550/4/4
f 549/1/4 548/1/4 550/1/4
f 550/4/4 544/4/4 552/4/4
f 552/4/4 544/4/4 553/4/4
f 553/4/4 544/4/4 554/4/4
f 552/4/4 553/4/4 555/4/4
f 555/4/4 553/4/4 556/4/4
f 551/1/4 552/1/4 557/1/4
f 552/4/4 555/4/4 558/4/4
f 557/1/4 552/1/4 558/1/4
f 558/4/4 555/4/4 559/4/4
f 564/1/5 561/1/5 560/1/5
f 565/1/5 561/1/5 564/1/5
f 566/1/5 563/1/5 562/1/5
f 567/1/5 563/1/5 566/1/5
f 568/1/5 564/1/5 560/1/5
f 569/2/5 565/2/5 564/2/5
f 569/1/5 564/1/5 568/1/5
f 570/2/5 565/2/5 569/2/5
f 571/2/5 567/2/5 566/2/5
f 572/1/5 563/1/5 567/1/5
f 572/2/5 567/2/5 571/2/5
f 573/1/5 563/1/5 572/1/5
f 582/1/5 575/1/5 574/1/5
f 582/2/5 576/2/5 575/2/5
f 583/2/5 576/2/5 582/2/5
f 584/2/5 578/2/5 577/2/5
f 585/1/5 579/1/5 578/1/5
f 585/2/5 578/2/5 584/2/5
f 586/1/5 581/1/5 580/1/5
f 587/1/5 581/1/5 586/1/5
f 588/1/5 583/1/5 582/1/5
f 588/1/5 582/1/5 574/1/5
f 589/1/5 583/1/5 588/1/5
f 590/1/5 585/1/5 584/1/5
f 591/1/5 579/1/5 585/1/5
f 591/1/5 585/1/5 590/1/5
f 592/2/5 587/2/5 586/2/5
f 593/1/5 581/1/5 587/1/5
f 593/2/5 587/2/5 592/2/5
f 594/1/5 581/1/5 593/1/5
f 604/1/5 596/1/5 595/1/5
f 604/2/5 597/2/5 596/2/5
f 605/2/5 597/2/5 604/2/5
f 606/2/5 599/2/5 598/2/5
f 607/1/5 600/1/5 599/1/5
f 607/2/5 599/2/5 606/2/5
f 608/2/5 602/2/5 601/2/5
f 609/1/5 603/1/5 602/1/5
f 609/2/5 602/2/5 608/2/5
f 610/1/5 605/1/5 604/1/5
f 610/1/5 604/1/5 595/1/5
f 611/1/5 605/1/5 610/1/5
f 612/1/5 607/1/5 606/1/5
f 613/1/5 600/1/5 607/1/5
f 613/1/5 607/1/5 612/1/5
f 614/1/5 609/1/5 608/1/5
f 615/1/5 603/1/5 609/1/5
f 615/1/5 609/1/5 614/1/5
f 618/4/5 617/4/5 616/4/5
f 619/4/5 617/4/5 618/4/5
f 622/4/5 619/4/5 618/4/5
f 623/4/5 619/4/5 622/4/5
f 626/4/5 621/4/5 620/4/5
f 626/4/5 625/4/5 624/4/5
f 626/4/5 624/4/5 623/4/5
f 626/4/5 622/4/5 621/4/5
f 626/4/5 623/4/5 622/4/5
f 627/4/5 625/4/5 626/4/5
f 628/4/5 625/4/5 627/4/5
f 629/4/5 625/4/5 628/4/5
f 630/4/5 625/4/5 629/4/5
f 631/4/5 625/4/5 630/4/5
f 633/4/5 629/4/5 628/4/5
f 634/4/5 629/4/5 633/4/5
f 635/4/5 632/4/5 631/4/5
f 637/4/5 634/4/5 633/4/5
f 638/4/5 634/4/5 637/4/5
f 639/4/5 635/4/5 631/4/5
f 640/4/5 635/4/5 639/4/5
f 643/4/5 640/4/5 639/4/5
f 643/4/5 642/4/5 641/4/5
f 643/4/5 641/4/5 640/4/5
f 643/4/5 639/4/5 638/4/5
f 643/4/5 638/4/5 637/4/5
f 643/4/5 637/4/5 636/4/5
f 644/4/5 642/4/5 643/4/5
f 645/4/5 642/4/5 644/4/5
f 646/4/5 642/4/5 645/4/5
f 647/4/5 642/4/5 646/4/5
f 648/4/5 642/4/5 647/4/5
f 649/4/5 642/4/5 648/4/5
f 650/4/5 642/4/5 649/4/5
f 651/4/5 642/4/5 650/4/5
f 652/4/5 646/4/5 645/4/5
f 653/4/5 646/4/5 652/4/5
f 654/4/5 649/4/5 648/4/5
f 655/4/5 653/4/5 652/4/5
f 656/4/5 653/4/5 655/4/5
f 657/4/5 654/4/5 648/4/5
f 658/4/5 654/4/5 657/4/5
f 659/4/6 660/4/6 661/4/6
f 661/4/6 660/4/6 662/4/6
f 663/4/6 664/4/6 667/4/6
f 667/4/6 664/4/6 668/4/6
f 665/4/6 666/4/6 669/4/6
f 669/4/6 666/4/6 670/4/6
f 671/3/6 672/3/6 674/3/6
f 674/3/6 672/3/6 675/3/6
f 673/3/6 674/3/6 676/3/6
f 676/3/6 674/3/6 677/3/6
f 677/3/6 678/3/6 679/3/6
f 679/3/6 678/3/6 680/3/6
f 680/3/6 681/3/6 686/3/6
f 686/3/6 681/3/6 687/3/6
f 682/3/6 683/3/6 688/3/6
f 688/3/6 683/3/6 689/3/6
f 684/3/6 685/3/6 691/3/6
f 691/3/6 685/3/6 692/3/6
f 690/3/6 691/3/6 694/3/6
f 694/3/6 691/3/6 695/3/6
f 693/3/6 694/3/6 697/3/6
f 697/3/6 694/3/6 698/3/6
f 696/3/6 697/3/6 699/3/6
f 699/3/6 697/3/6 700/3/6
f 687/3/6 688/3/6 701/3/6
f 701/3/6 688/3/6 702/3/6
f 703/3/6 704/3/6 706/3/6
f 706/3/6 704/3/6 707/3/6
f 705/3/6 706/3/6 708/3/6
f 708/3/6 706/3/6 709/3/6
f 709/3/6 710/3/6 711/3/6
f 711/3/6 710/3/6 712/3/6
f 709/3/6 711/3/6 716/3/6
f 716/3/6 711/3/6 717/3/6
f 712/3/6 713/3/6 718/3/6
f 709/3/6 716/3/6 719/3/6
f 719/3/6 716/3/6 720/3/6
f 717/3/6 718/3/6 721/3/6
f 709/3/6 719/3/6 722/3/6
f 722/3/6 719/3/6 723/3/6
f 720/3/6 721/3/6 724/3/6
f 723/3/6 724/3/6 725/3/6
f 724/3/6 721/3/6 726/3/6
f 725/3/6 724/3/6 726/3/6
f 718/3/6 713/3/6 726/3/6
f 721/3/6 718/3/6 726/3/6
f 714/3/6 715/3/6 727/3/6
f 727/3/6 715/3/6 728/3/6
f 726/3/6 727/3/6 729/3/6
f 729/3/6 727/3/6 730/3/6
f 731/4/6 732/4/6 733/4/6
f 733/4/6 732/4/6 734/4/6
f 731/4/6 733/4/6 735/4/6
f 735/4/6 733/4/6 736/4/6
f 736/4/6 733/4/6 737/4/6
f 738/4/6 739/4/6 741/4/6
f 740/4/6 741/4/6 742/4/6
f 742/4/6 741/4/6 743/4/6
f 741/4/6 739/4/6 744/4/6
f 743/4/6 741/4/6 744/4/6
f 742/3/6 743/3/6 745/3/6
f 745/3/6 743/3/6 746/3/6
f 747/3/6 748/3/6 749/3/6
f 749/3/6 748/3/6 750/3/6
f 751/3/6 752/3/6 753/3/6
f 753/3/6 752/3/6 754/3/6
f 757/3/6 758/3/6 759/3/6
f 757/3/6 759/3/6 767/3/6
f 759/3/6 760/3/6 767/3/6
f 767/3/6 760/3/6 768/3/6
f 761/3/6 762/3/6 769/3/6
f 769/3/6 762/3/6 770/3/6
f 763/3/6 764/3/6 771/3/6
f 771/3/6 764/3/6 772/3/6
f 765/3/6 766/3/6 773/3/6
f 773/3/6 766/3/6 774/3/6
f 755/4/6 756/4/6 775/4/6
f 775/4/6 756/4/6 776/4/6
f 777/4/6 778/4/6 779/4/6
f 779/4/6 778/4/6 780/4/6
f 780/4/6 778/4/6 781/4/6
f 782/3/6 783/3/6 784/3/6
f 784/3/6 783/3/6 785/3/6
f 786/3/6 787/3/6 788/3/6
f 788/3/6 787/3/6 789/3/6
f 790/3/6 791/3/6 792/3/6
f 792/3/6 791/3/6 793/3/6
f 794/3/6 795/3/6 796/3/6
f 796/3/6 795/3/6 797/3/6
f 798/3/6 799/3/6 806/3/6
f 806/3/6 799/3/6 807/3/6
f 800/3/6 801/3/6 808/3/6
f 808/3/6 801/3/6 809/3/6
f 802/3/6 803/3/6 810/3/6
f 810/3/6 803/3/6 811/3/6
f 804/3/6 805/3/6 812/3/6
f 812/3/6 805/3/6 813/3/6
f 814/4/6 815/4/6 816/4/6
f 816/4/6 815/4/6 817/4/6
f 818/4/6 819/4/6 820/4/6
f 820/4/6 819/4/6 821/4/6
f 822/3/6 823/3/6 824/3/6
f 824/3/6 823/3/6 825/3/6
f 826/3/6 827/3/6 828/3/6
f 828/3/6 827/3/6 829/3/6
f 830/3/6 831/3/6 834/3/6
f 834/3/6 831/3/6 835/3/6
f 832/3/6 833/3/6 836/3/6
f 836/3/6 833/3/6 837/3/6
f 838/4/6 839/4/6 840/4/6
f 840/4/6 839/4/6 841/4/6
f 842/4/6 843/4/6 844/4/6
f 842/4/6 844/4/6 846/4/6
f 844/4/6 845/4/6 846/4/6
f 846/4/6 845/4/6 847/4/6
