# MagicaVoxel @ Ephtracy

# group
g boi

# material
mtllib boi.mtl
usemtl palette

# normals
vn -1 0 0
vn 1 0 0
vn 0 0 1
vn 0 0 -1
vn 0 -1 0
vn 0 1 0

# texcoords
vt 0.0253906 0.5
vt 0.201172 0.5
vt 0.216797 0.5
vt 0.267578 0.5
vt 0.314453 0.5
vt 0.560547 0.5
vt 0.880859 0.5
vt 0.892578 0.5
vt 0.943359 0.5

# verts
v -12.5 16 2
v -12.5 16 -2
v -12.5 18 2
v -12.5 18 1
v -12.5 19 -1
v -12.5 19 -2
v -12.5 20 1
v -12.5 20 -1
v -7.5 15 1
v -7.5 15 -2
v -7.5 16 -0
v -7.5 16 -1
v -7.5 17 -0
v -7.5 17 -1
v -7.5 18 1
v -7.5 18 -2
v -4.5 0 3
v -4.5 0 -2
v -4.5 1 1
v -4.5 1 -2
v -4.5 2 3
v -4.5 2 1
v -4.5 3 1
v -4.5 3 -2
v -4.5 4 1
v -4.5 4 -2
v -4.5 7 2
v -4.5 7 -3
v -4.5 9 2
v -4.5 9 -3
v -4.5 10 2
v -4.5 10 -3
v -4.5 11 2
v -4.5 11 -3
v -4.5 15 1
v -4.5 15 -2
v -4.5 18 2
v -4.5 18 1
v -4.5 18 -2
v -4.5 18 -3
v -4.5 20 -2
v -4.5 20 -4
v -4.5 22 -1
v -4.5 22 -2
v -4.5 23 1
v -4.5 23 -0
v -4.5 24 -0
v -4.5 24 -1
v -4.5 25 3
v -4.5 25 1
v -4.5 26 4
v -4.5 26 3
v -4.5 27 -1
v -4.5 27 -4
v -4.5 28 4
v -4.5 28 -1
v -3.5 4 -0
v -3.5 4 -1
v -3.5 7 -0
v -3.5 7 -1
v -3.5 9 1
v -3.5 9 -2
v -3.5 10 1
v -3.5 10 -2
v -3.5 19 3
v -3.5 19 -4
v -3.5 20 -2
v -3.5 20 -4
v -3.5 20 -5
v -3.5 22 3
v -3.5 22 2
v -3.5 22 -1
v -3.5 22 -2
v -3.5 23 3
v -3.5 23 2
v -3.5 23 1
v -3.5 23 -0
v -3.5 24 -0
v -3.5 24 -1
v -3.5 25 4
v -3.5 25 3
v -3.5 25 1
v -3.5 26 5
v -3.5 26 4
v -3.5 26 3
v -3.5 27 -1
v -3.5 27 -4
v -3.5 27 -5
v -3.5 28 5
v -3.5 28 4
v -3.5 28 -1
v -3.5 28 -4
v -1.5 18 1
v -1.5 18 -2
v -1.5 19 1
v -1.5 19 -2
v 0.5 7 2
v 0.5 7 -3
v 0.5 8 2
v 0.5 8 -3
v 1.5 0 3
v 1.5 0 -2
v 1.5 1 1
v 1.5 1 -2
v 1.5 2 3
v 1.5 2 1
v 1.5 3 1
v 1.5 3 -2
v 1.5 4 1
v 1.5 4 -2
v 2.5 4 -0
v 2.5 4 -1
v 2.5 7 -0
v 2.5 7 -1
v 11.5 16 2
v 11.5 16 -0
v 11.5 16 -1
v 11.5 16 -2
v 11.5 17 -0
v 11.5 17 -1
v 11.5 18 2
v 11.5 18 1
v 11.5 19 -1
v 11.5 19 -2
v 11.5 20 1
v 11.5 20 -1
v -11.5 16 2
v -11.5 16 -0
v -11.5 16 -1
v -11.5 16 -2
v -11.5 17 -0
v -11.5 17 -1
v -11.5 18 2
v -11.5 18 1
v -11.5 19 -1
v -11.5 19 -2
v -11.5 20 1
v -11.5 20 -1
v -2.5 4 -0
v -2.5 4 -1
v -2.5 7 -0
v -2.5 7 -1
v -2.5 27 5
v -2.5 27 4
v -2.5 28 5
v -2.5 28 4
v -1.5 0 3
v -1.5 0 -2
v -1.5 1 1
v -1.5 1 -2
v -1.5 2 3
v -1.5 2 1
v -1.5 3 1
v -1.5 3 -2
v -1.5 4 1
v -1.5 4 -2
v -1.5 27 4
v -1.5 27 3
v -1.5 28 4
v -1.5 28 3
v -0.5 7 2
v -0.5 7 -3
v -0.5 8 2
v -0.5 8 -3
v -0.5 26 5
v -0.5 26 4
v -0.5 27 5
v -0.5 27 4
v 0.5 25 4
v 0.5 25 3
v 0.5 26 4
v 0.5 26 3
v 1.5 18 1
v 1.5 18 -2
v 1.5 19 1
v 1.5 19 -2
v 3.5 4 -0
v 3.5 4 -1
v 3.5 7 -0
v 3.5 7 -1
v 3.5 9 1
v 3.5 9 -2
v 3.5 10 1
v 3.5 10 -2
v 3.5 19 3
v 3.5 19 -4
v 3.5 20 -2
v 3.5 20 -4
v 3.5 20 -5
v 3.5 22 3
v 3.5 22 2
v 3.5 22 -1
v 3.5 22 -2
v 3.5 23 3
v 3.5 23 2
v 3.5 23 1
v 3.5 23 -0
v 3.5 24 -0
v 3.5 24 -1
v 3.5 25 3
v 3.5 25 1
v 3.5 26 4
v 3.5 26 3
v 3.5 27 4
v 3.5 27 3
v 3.5 27 -4
v 3.5 27 -5
v 3.5 28 3
v 3.5 28 -4
v 4.5 0 3
v 4.5 0 -2
v 4.5 1 1
v 4.5 1 -2
v 4.5 2 3
v 4.5 2 1
v 4.5 3 1
v 4.5 3 -2
v 4.5 4 1
v 4.5 4 -2
v 4.5 7 2
v 4.5 7 -3
v 4.5 9 2
v 4.5 9 -3
v 4.5 10 2
v 4.5 10 -3
v 4.5 11 2
v 4.5 11 -3
v 4.5 15 1
v 4.5 15 -2
v 4.5 18 2
v 4.5 18 1
v 4.5 18 -2
v 4.5 18 -3
v 4.5 20 -2
v 4.5 20 -4
v 4.5 22 -1
v 4.5 22 -2
v 4.5 23 1
v 4.5 23 -0
v 4.5 24 -0
v 4.5 24 -1
v 4.5 25 3
v 4.5 25 1
v 4.5 27 3
v 4.5 27 -4
v 7.5 15 1
v 7.5 15 -2
v 7.5 16 -0
v 7.5 16 -1
v 7.5 17 -0
v 7.5 17 -1
v 7.5 18 1
v 7.5 18 -2
v 12.5 16 2
v 12.5 16 -2
v 12.5 18 2
v 12.5 18 1
v 12.5 19 -1
v 12.5 19 -2
v 12.5 20 1
v 12.5 20 -1
v -3.5 26 5
v -3.5 28 5
v -2.5 27 5
v -2.5 28 5
v -0.5 26 5
v -0.5 27 5
v -4.5 26 4
v -4.5 28 4
v -3.5 25 4
v -3.5 26 4
v -3.5 28 4
v -2.5 27 4
v -2.5 28 4
v -1.5 27 4
v -1.5 28 4
v -0.5 26 4
v -0.5 27 4
v 0.5 25 4
v 0.5 26 4
v 3.5 26 4
v 3.5 27 4
v -4.5 0 3
v -4.5 2 3
v -4.5 25 3
v -4.5 26 3
v -3.5 19 3
v -3.5 22 3
v -3.5 23 3
v -3.5 25 3
v -3.5 26 3
v -2.5 22 3
v -2.5 23 3
v -2.5 24 3
v -1.5 0 3
v -1.5 2 3
v -1.5 21 3
v -1.5 22 3
v -1.5 23 3
v -1.5 24 3
v -1.5 27 3
v -1.5 28 3
v 0.5 25 3
v 0.5 26 3
v 1.5 0 3
v 1.5 2 3
v 1.5 21 3
v 1.5 22 3
v 1.5 23 3
v 1.5 24 3
v 2.5 22 3
v 2.5 23 3
v 2.5 24 3
v 3.5 19 3
v 3.5 22 3
v 3.5 23 3
v 3.5 25 3
v 3.5 26 3
v 3.5 27 3
v 3.5 28 3
v 4.5 0 3
v 4.5 2 3
v 4.5 25 3
v 4.5 27 3
v -12.5 16 2
v -12.5 18 2
v -11.5 16 2
v -11.5 18 2
v -4.5 7 2
v -4.5 9 2
v -4.5 10 2
v -4.5 11 2
v -4.5 18 2
v -0.5 7 2
v -0.5 8 2
v 0.5 7 2
v 0.5 8 2
v 4.5 7 2
v 4.5 9 2
v 4.5 10 2
v 4.5 11 2
v 4.5 18 2
v 11.5 16 2
v 11.5 18 2
v 12.5 16 2
v 12.5 18 2
v -12.5 18 1
v -12.5 20 1
v -11.5 18 1
v -11.5 20 1
v -7.5 15 1
v -7.5 18 1
v -4.5 2 1
v -4.5 3 1
v -4.5 4 1
v -4.5 15 1
v -4.5 18 1
v -4.5 23 1
v -4.5 25 1
v -3.5 9 1
v -3.5 10 1
v -3.5 23 1
v -3.5 25 1
v -1.5 2 1
v -1.5 3 1
v -1.5 4 1
v -1.5 18 1
v -1.5 19 1
v 1.5 2 1
v 1.5 3 1
v 1.5 4 1
v 1.5 18 1
v 1.5 19 1
v 3.5 9 1
v 3.5 10 1
v 3.5 23 1
v 3.5 25 1
v 4.5 2 1
v 4.5 3 1
v 4.5 4 1
v 4.5 15 1
v 4.5 18 1
v 4.5 23 1
v 4.5 25 1
v 7.5 15 1
v 7.5 18 1
v 11.5 18 1
v 11.5 20 1
v 12.5 18 1
v 12.5 20 1
v -11.5 16 -0
v -11.5 17 -0
v -7.5 16 -0
v -7.5 17 -0
v -3.5 4 -0
v -3.5 7 -0
v -2.5 4 -0
v -2.5 7 -0
v 2.5 4 -0
v 2.5 7 -0
v 3.5 4 -0
v 3.5 7 -0
v 7.5 16 -0
v 7.5 17 -0
v 11.5 16 -0
v 11.5 17 -0
v -4.5 22 -1
v -4.5 24 -1
v -3.5 22 -1
v -3.5 24 -1
v 3.5 22 -1
v 3.5 24 -1
v 4.5 22 -1
v 4.5 24 -1
v -4.5 20 -2
v -4.5 22 -2
v -3.5 20 -2
v -3.5 22 -2
v 3.5 20 -2
v 3.5 22 -2
v 4.5 20 -2
v 4.5 22 -2
v -4.5 23 -0
v -4.5 24 -0
v -3.5 23 -0
v -3.5 24 -0
v 3.5 23 -0
v 3.5 24 -0
v 4.5 23 -0
v 4.5 24 -0
v -12.5 19 -1
v -12.5 20 -1
v -11.5 16 -1
v -11.5 17 -1
v -11.5 19 -1
v -11.5 20 -1
v -7.5 16 -1
v -7.5 17 -1
v -4.5 27 -1
v -4.5 28 -1
v -3.5 4 -1
v -3.5 7 -1
v -3.5 27 -1
v -3.5 28 -1
v -2.5 4 -1
v -2.5 7 -1
v 2.5 4 -1
v 2.5 7 -1
v 3.5 4 -1
v 3.5 7 -1
v 7.5 16 -1
v 7.5 17 -1
v 11.5 16 -1
v 11.5 17 -1
v 11.5 19 -1
v 11.5 20 -1
v 12.5 19 -1
v 12.5 20 -1
v -12.5 16 -2
v -12.5 19 -2
v -11.5 16 -2
v -11.5 19 -2
v -7.5 15 -2
v -7.5 18 -2
v -4.5 0 -2
v -4.5 1 -2
v -4.5 3 -2
v -4.5 4 -2
v -4.5 15 -2
v -4.5 18 -2
v -3.5 9 -2
v -3.5 10 -2
v -1.5 0 -2
v -1.5 1 -2
v -1.5 3 -2
v -1.5 4 -2
v -1.5 18 -2
v -1.5 19 -2
v 1.5 0 -2
v 1.5 1 -2
v 1.5 3 -2
v 1.5 4 -2
v 1.5 18 -2
v 1.5 19 -2
v 3.5 9 -2
v 3.5 10 -2
v 4.5 0 -2
v 4.5 1 -2
v 4.5 3 -2
v 4.5 4 -2
v 4.5 15 -2
v 4.5 18 -2
v 7.5 15 -2
v 7.5 18 -2
v 11.5 16 -2
v 11.5 19 -2
v 12.5 16 -2
v 12.5 19 -2
v -4.5 7 -3
v -4.5 9 -3
v -4.5 10 -3
v -4.5 11 -3
v -4.5 18 -3
v -0.5 7 -3
v -0.5 8 -3
v 0.5 7 -3
v 0.5 8 -3
v 4.5 7 -3
v 4.5 9 -3
v 4.5 10 -3
v 4.5 11 -3
v 4.5 18 -3
v -4.5 20 -4
v -4.5 27 -4
v -3.5 19 -4
v -3.5 20 -4
v -3.5 27 -4
v -3.5 28 -4
v 3.5 19 -4
v 3.5 20 -4
v 3.5 27 -4
v 3.5 28 -4
v 4.5 20 -4
v 4.5 27 -4
v -3.5 20 -5
v -3.5 27 -5
v 3.5 20 -5
v 3.5 27 -5
v -4.5 0 3
v -1.5 0 3
v 1.5 0 3
v 4.5 0 3
v -4.5 0 -2
v -1.5 0 -2
v 1.5 0 -2
v 4.5 0 -2
v -4.5 7 2
v -0.5 7 2
v 0.5 7 2
v 4.5 7 2
v -3.5 7 -0
v -2.5 7 -0
v 2.5 7 -0
v 3.5 7 -0
v -3.5 7 -1
v -2.5 7 -1
v 2.5 7 -1
v 3.5 7 -1
v -4.5 7 -3
v -0.5 7 -3
v 0.5 7 -3
v 4.5 7 -3
v -0.5 8 2
v 0.5 8 2
v -0.5 8 -3
v 0.5 8 -3
v -4.5 10 2
v 4.5 10 2
v -3.5 10 1
v 3.5 10 1
v -3.5 10 -2
v 3.5 10 -2
v -4.5 10 -3
v 4.5 10 -3
v -7.5 15 1
v -4.5 15 1
v 4.5 15 1
v 7.5 15 1
v -7.5 15 -2
v -4.5 15 -2
v 4.5 15 -2
v 7.5 15 -2
v -12.5 16 2
v -11.5 16 2
v 11.5 16 2
v 12.5 16 2
v -11.5 16 -0
v -7.5 16 -0
v 7.5 16 -0
v 11.5 16 -0
v -11.5 16 -1
v -7.5 16 -1
v 7.5 16 -1
v 11.5 16 -1
v -12.5 16 -2
v -11.5 16 -2
v 11.5 16 -2
v 12.5 16 -2
v -3.5 19 3
v 3.5 19 3
v -1.5 19 1
v 1.5 19 1
v -1.5 19 -2
v 1.5 19 -2
v -3.5 19 -4
v 3.5 19 -4
v -4.5 20 -2
v -3.5 20 -2
v 3.5 20 -2
v 4.5 20 -2
v -4.5 20 -4
v -3.5 20 -4
v 3.5 20 -4
v 4.5 20 -4
v -3.5 20 -5
v 3.5 20 -5
v -4.5 22 -1
v -3.5 22 -1
v 3.5 22 -1
v 4.5 22 -1
v -4.5 22 -2
v -3.5 22 -2
v 3.5 22 -2
v 4.5 22 -2
v -4.5 23 1
v -3.5 23 1
v 3.5 23 1
v 4.5 23 1
v -4.5 23 -0
v -3.5 23 -0
v 3.5 23 -0
v 4.5 23 -0
v -4.5 24 -0
v -3.5 24 -0
v 3.5 24 -0
v 4.5 24 -0
v -4.5 24 -1
v -3.5 24 -1
v 3.5 24 -1
v 4.5 24 -1
v -3.5 25 4
v 0.5 25 4
v -4.5 25 3
v -3.5 25 3
v 0.5 25 3
v 3.5 25 3
v 4.5 25 3
v -4.5 25 1
v -3.5 25 1
v 3.5 25 1
v 4.5 25 1
v -3.5 26 5
v -0.5 26 5
v -4.5 26 4
v -3.5 26 4
v -0.5 26 4
v 0.5 26 4
v 3.5 26 4
v -4.5 26 3
v -3.5 26 3
v 0.5 26 3
v 3.5 26 3
v -4.5 2 3
v -1.5 2 3
v 1.5 2 3
v 4.5 2 3
v -4.5 2 1
v -1.5 2 1
v 1.5 2 1
v 4.5 2 1
v -4.5 4 1
v -1.5 4 1
v 1.5 4 1
v 4.5 4 1
v -3.5 4 -0
v -2.5 4 -0
v 2.5 4 -0
v 3.5 4 -0
v -3.5 4 -1
v -2.5 4 -1
v 2.5 4 -1
v 3.5 4 -1
v -4.5 4 -2
v -1.5 4 -2
v 1.5 4 -2
v 4.5 4 -2
v -4.5 9 2
v 4.5 9 2
v -3.5 9 1
v 3.5 9 1
v -3.5 9 -2
v 3.5 9 -2
v -4.5 9 -3
v 4.5 9 -3
v -11.5 17 -0
v -7.5 17 -0
v 7.5 17 -0
v 11.5 17 -0
v -11.5 17 -1
v -7.5 17 -1
v 7.5 17 -1
v 11.5 17 -1
v -12.5 18 2
v -11.5 18 2
v -4.5 18 2
v 4.5 18 2
v 11.5 18 2
v 12.5 18 2
v -12.5 18 1
v -11.5 18 1
v -7.5 18 1
v -4.5 18 1
v -1.5 18 1
v 1.5 18 1
v 4.5 18 1
v 7.5 18 1
v 11.5 18 1
v 12.5 18 1
v -7.5 18 -2
v -4.5 18 -2
v -1.5 18 -2
v 1.5 18 -2
v 4.5 18 -2
v 7.5 18 -2
v -4.5 18 -3
v 4.5 18 -3
v -12.5 19 -1
v -11.5 19 -1
v 11.5 19 -1
v 12.5 19 -1
v -12.5 19 -2
v -11.5 19 -2
v 11.5 19 -2
v 12.5 19 -2
v -12.5 20 1
v -11.5 20 1
v 11.5 20 1
v 12.5 20 1
v -12.5 20 -1
v -11.5 20 -1
v 11.5 20 -1
v 12.5 20 -1
v -2.5 27 5
v -0.5 27 5
v -2.5 27 4
v -1.5 27 4
v -0.5 27 4
v 3.5 27 4
v -1.5 27 3
v 3.5 27 3
v 4.5 27 3
v -4.5 27 -1
v -3.5 27 -1
v -4.5 27 -4
v -3.5 27 -4
v 3.5 27 -4
v 4.5 27 -4
v -3.5 27 -5
v 3.5 27 -5
v -3.5 28 5
v -2.5 28 5
v -4.5 28 4
v -3.5 28 4
v -2.5 28 4
v -1.5 28 4
v -1.5 28 3
v 3.5 28 3
v -4.5 28 -1
v -3.5 28 -1
v -3.5 28 -4
v 3.5 28 -4

# faces
f 3/2/1 2/2/1 1/2/1
f 4/2/1 2/2/1 3/2/1
f 5/2/1 2/2/1 4/2/1
f 6/2/1 2/2/1 5/2/1
f 7/2/1 5/2/1 4/2/1
f 8/2/1 5/2/1 7/2/1
f 11/7/1 10/7/1 9/7/1
f 12/7/1 10/7/1 11/7/1
f 13/7/1 11/7/1 9/7/1
f 14/7/1 10/7/1 12/7/1
f 15/7/1 13/7/1 9/7/1
f 15/7/1 14/7/1 13/7/1
f 16/7/1 10/7/1 14/7/1
f 16/7/1 14/7/1 15/7/1
f 19/6/1 18/6/1 17/6/1
f 20/6/1 18/6/1 19/6/1
f 21/6/1 19/6/1 17/6/1
f 22/8/1 20/8/1 19/8/1
f 22/6/1 19/6/1 21/6/1
f 23/8/1 20/8/1 22/8/1
f 24/8/1 20/8/1 23/8/1
f 25/6/1 24/6/1 23/6/1
f 26/6/1 24/6/1 25/6/1
f 29/4/1 28/4/1 27/4/1
f 30/4/1 28/4/1 29/4/1
f 33/4/1 32/4/1 31/4/1
f 34/4/1 32/4/1 33/4/1
f 35/7/1 34/7/1 33/7/1
f 36/7/1 34/7/1 35/7/1
f 37/7/1 35/7/1 33/7/1
f 38/7/1 35/7/1 37/7/1
f 39/7/1 34/7/1 36/7/1
f 40/7/1 34/7/1 39/7/1
f 44/5/1 42/5/1 41/5/1
f 47/5/1 46/5/1 45/5/1
f 48/5/1 44/5/1 43/5/1
f 50/5/1 47/5/1 45/5/1
f 50/5/1 48/5/1 47/5/1
f 52/5/1 50/5/1 49/5/1
f 53/5/1 44/5/1 48/5/1
f 53/5/1 52/5/1 51/5/1
f 53/5/1 50/5/1 52/5/1
f 53/5/1 48/5/1 50/5/1
f 54/5/1 42/5/1 44/5/1
f 54/5/1 44/5/1 53/5/1
f 55/5/1 53/5/1 51/5/1
f 56/5/1 53/5/1 55/5/1
f 59/2/1 58/2/1 57/2/1
f 60/2/1 58/2/1 59/2/1
f 63/4/1 62/4/1 61/4/1
f 64/4/1 62/4/1 63/4/1
f 67/2/1 66/2/1 65/2/1
f 68/2/1 66/2/1 67/2/1
f 70/2/1 67/2/1 65/2/1
f 71/2/1 67/2/1 70/2/1
f 72/2/1 67/2/1 71/2/1
f 73/2/1 67/2/1 72/2/1
f 74/3/1 71/3/1 70/3/1
f 75/2/1 72/2/1 71/2/1
f 75/3/1 71/3/1 74/3/1
f 76/2/1 72/2/1 75/2/1
f 77/2/1 72/2/1 76/2/1
f 78/2/1 72/2/1 77/2/1
f 79/2/1 72/2/1 78/2/1
f 81/2/1 75/2/1 74/2/1
f 81/2/1 76/2/1 75/2/1
f 82/2/1 76/2/1 81/2/1
f 84/5/1 81/5/1 80/5/1
f 85/5/1 81/5/1 84/5/1
f 87/5/1 69/5/1 68/5/1
f 88/5/1 69/5/1 87/5/1
f 89/5/1 84/5/1 83/5/1
f 90/5/1 84/5/1 89/5/1
f 91/5/1 87/5/1 86/5/1
f 92/5/1 87/5/1 91/5/1
f 95/2/1 94/2/1 93/2/1
f 96/2/1 94/2/1 95/2/1
f 99/4/1 98/4/1 97/4/1
f 100/4/1 98/4/1 99/4/1
f 103/6/1 102/6/1 101/6/1
f 104/6/1 102/6/1 103/6/1
f 105/6/1 103/6/1 101/6/1
f 106/8/1 104/8/1 103/8/1
f 106/6/1 103/6/1 105/6/1
f 107/8/1 104/8/1 106/8/1
f 108/8/1 104/8/1 107/8/1
f 109/6/1 108/6/1 107/6/1
f 110/6/1 108/6/1 109/6/1
f 113/2/1 112/2/1 111/2/1
f 114/2/1 112/2/1 113/2/1
f 119/2/1 116/2/1 115/2/1
f 120/2/1 118/2/1 117/2/1
f 121/2/1 119/2/1 115/2/1
f 121/2/1 120/2/1 119/2/1
f 122/2/1 120/2/1 121/2/1
f 123/2/1 118/2/1 120/2/1
f 123/2/1 120/2/1 122/2/1
f 124/2/1 118/2/1 123/2/1
f 125/2/1 123/2/1 122/2/1
f 126/2/1 123/2/1 125/2/1
f 127/2/2 128/2/2 131/2/2
f 129/2/2 130/2/2 132/2/2
f 127/2/2 131/2/2 133/2/2
f 131/2/2 132/2/2 133/2/2
f 133/2/2 132/2/2 134/2/2
f 132/2/2 130/2/2 135/2/2
f 134/2/2 132/2/2 135/2/2
f 135/2/2 130/2/2 136/2/2
f 134/2/2 135/2/2 137/2/2
f 137/2/2 135/2/2 138/2/2
f 139/2/2 140/2/2 141/2/2
f 141/2/2 140/2/2 142/2/2
f 143/5/2 144/5/2 145/5/2
f 145/5/2 144/5/2 146/5/2
f 147/6/2 148/6/2 149/6/2
f 149/6/2 148/6/2 150/6/2
f 147/6/2 149/6/2 151/6/2
f 149/8/2 150/8/2 152/8/2
f 151/6/2 149/6/2 152/6/2
f 152/8/2 150/8/2 153/8/2
f 153/8/2 150/8/2 154/8/2
f 153/6/2 154/6/2 155/6/2
f 155/6/2 154/6/2 156/6/2
f 157/5/2 158/5/2 159/5/2
f 159/5/2 158/5/2 160/5/2
f 161/4/2 162/4/2 163/4/2
f 163/4/2 162/4/2 164/4/2
f 165/5/2 166/5/2 167/5/2
f 167/5/2 166/5/2 168/5/2
f 169/5/2 170/5/2 171/5/2
f 171/5/2 170/5/2 172/5/2
f 173/2/2 174/2/2 175/2/2
f 175/2/2 174/2/2 176/2/2
f 177/2/2 178/2/2 179/2/2
f 179/2/2 178/2/2 180/2/2
f 181/4/2 182/4/2 183/4/2
f 183/4/2 182/4/2 184/4/2
f 185/2/2 186/2/2 187/2/2
f 187/2/2 186/2/2 188/2/2
f 185/2/2 187/2/2 190/2/2
f 190/2/2 187/2/2 191/2/2
f 191/2/2 187/2/2 192/2/2
f 192/2/2 187/2/2 193/2/2
f 190/3/2 191/3/2 194/3/2
f 191/2/2 192/2/2 195/2/2
f 194/3/2 191/3/2 195/3/2
f 195/2/2 192/2/2 196/2/2
f 196/2/2 192/2/2 197/2/2
f 197/2/2 192/2/2 198/2/2
f 198/2/2 192/2/2 199/2/2
f 194/2/2 195/2/2 200/2/2
f 195/2/2 196/2/2 200/2/2
f 200/2/2 196/2/2 201/2/2
f 202/5/2 203/5/2 204/5/2
f 204/5/2 203/5/2 205/5/2
f 188/5/2 189/5/2 206/5/2
f 206/5/2 189/5/2 207/5/2
f 205/5/2 206/5/2 208/5/2
f 208/5/2 206/5/2 209/5/2
f 210/6/2 211/6/2 212/6/2
f 212/6/2 211/6/2 213/6/2
f 210/6/2 212/6/2 214/6/2
f 212/8/2 213/8/2 215/8/2
f 214/6/2 212/6/2 215/6/2
f 215/8/2 213/8/2 216/8/2
f 216/8/2 213/8/2 217/8/2
f 216/6/2 217/6/2 218/6/2
f 218/6/2 217/6/2 219/6/2
f 220/4/2 221/4/2 222/4/2
f 222/4/2 221/4/2 223/4/2
f 224/4/2 225/4/2 226/4/2
f 226/4/2 225/4/2 227/4/2
f 226/7/2 227/7/2 228/7/2
f 228/7/2 227/7/2 229/7/2
f 226/7/2 228/7/2 230/7/2
f 230/7/2 228/7/2 231/7/2
f 229/7/2 227/7/2 232/7/2
f 232/7/2 227/7/2 233/7/2
f 234/5/2 235/5/2 237/5/2
f 238/5/2 239/5/2 240/5/2
f 236/5/2 237/5/2 241/5/2
f 238/5/2 240/5/2 243/5/2
f 240/5/2 241/5/2 243/5/2
f 242/5/2 243/5/2 244/5/2
f 237/5/2 235/5/2 245/5/2
f 244/5/2 243/5/2 245/5/2
f 241/5/2 237/5/2 245/5/2
f 243/5/2 241/5/2 245/5/2
f 246/7/2 247/7/2 248/7/2
f 248/7/2 247/7/2 249/7/2
f 246/7/2 248/7/2 250/7/2
f 249/7/2 247/7/2 251/7/2
f 246/7/2 250/7/2 252/7/2
f 250/7/2 251/7/2 252/7/2
f 251/7/2 247/7/2 253/7/2
f 252/7/2 251/7/2 253/7/2
f 254/2/2 255/2/2 256/2/2
f 256/2/2 255/2/2 257/2/2
f 257/2/2 255/2/2 258/2/2
f 258/2/2 255/2/2 259/2/2
f 257/2/2 258/2/2 260/2/2
f 260/2/2 258/2/2 261/2/2
f 264/5/3 263/5/3 262/5/3
f 265/5/3 263/5/3 264/5/3
f 266/5/3 264/5/3 262/5/3
f 267/5/3 264/5/3 266/5/3
f 271/5/3 269/5/3 268/5/3
f 272/5/3 269/5/3 271/5/3
f 275/5/3 274/5/3 273/5/3
f 276/5/3 274/5/3 275/5/3
f 277/5/3 271/5/3 270/5/3
f 279/5/3 277/5/3 270/5/3
f 279/5/3 278/5/3 277/5/3
f 280/5/3 278/5/3 279/5/3
f 281/5/3 278/5/3 280/5/3
f 282/5/3 278/5/3 281/5/3
f 290/5/3 286/5/3 285/5/3
f 291/5/3 286/5/3 290/5/3
f 292/3/3 289/3/3 288/3/3
f 292/2/3 288/2/3 287/2/3
f 293/2/3 290/2/3 289/2/3
f 293/3/3 289/3/3 292/3/3
f 294/2/3 290/2/3 293/2/3
f 295/6/3 284/6/3 283/6/3
f 296/6/3 284/6/3 295/6/3
f 297/2/3 292/2/3 287/2/3
f 297/2/3 293/2/3 292/2/3
f 298/2/3 293/2/3 297/2/3
f 299/5/3 294/5/3 293/5/3
f 299/2/3 293/2/3 298/2/3
f 300/2/3 290/2/3 294/2/3
f 300/5/3 294/5/3 299/5/3
f 303/2/3 299/2/3 298/2/3
f 303/2/3 290/2/3 300/2/3
f 303/2/3 300/2/3 299/2/3
f 307/2/3 297/2/3 287/2/3
f 307/9/3 298/9/3 297/9/3
f 308/2/3 304/2/3 303/2/3
f 308/9/3 298/9/3 307/9/3
f 308/2/3 303/2/3 298/2/3
f 309/2/3 304/2/3 308/2/3
f 310/2/3 304/2/3 309/2/3
f 311/2/3 308/2/3 307/2/3
f 311/2/3 309/2/3 308/2/3
f 312/5/3 310/5/3 309/5/3
f 312/2/3 309/2/3 311/2/3
f 313/2/3 304/2/3 310/2/3
f 313/5/3 310/5/3 312/5/3
f 314/2/3 307/2/3 287/2/3
f 314/2/3 311/2/3 307/2/3
f 315/3/3 312/3/3 311/3/3
f 315/2/3 311/2/3 314/2/3
f 316/2/3 313/2/3 312/2/3
f 316/3/3 312/3/3 315/3/3
f 317/2/3 304/2/3 313/2/3
f 317/2/3 313/2/3 316/2/3
f 318/2/3 304/2/3 317/2/3
f 319/5/3 302/5/3 301/5/3
f 320/5/3 302/5/3 319/5/3
f 321/6/3 306/6/3 305/6/3
f 322/6/3 306/6/3 321/6/3
f 323/5/3 318/5/3 317/5/3
f 323/5/3 319/5/3 318/5/3
f 324/5/3 319/5/3 323/5/3
f 327/2/3 326/2/3 325/2/3
f 328/2/3 326/2/3 327/2/3
f 334/4/3 330/4/3 329/4/3
f 335/4/3 330/4/3 334/4/3
f 337/4/3 330/4/3 335/4/3
f 338/4/3 337/4/3 336/4/3
f 339/4/3 330/4/3 337/4/3
f 339/4/3 337/4/3 338/4/3
f 340/4/3 332/4/3 331/4/3
f 341/7/3 333/7/3 332/7/3
f 341/4/3 332/4/3 340/4/3
f 342/7/3 333/7/3 341/7/3
f 345/2/3 344/2/3 343/2/3
f 346/2/3 344/2/3 345/2/3
f 349/2/3 348/2/3 347/2/3
f 350/2/3 348/2/3 349/2/3
f 356/7/3 352/7/3 351/7/3
f 357/7/3 352/7/3 356/7/3
f 362/5/3 359/5/3 358/5/3
f 363/5/3 359/5/3 362/5/3
f 364/8/3 354/8/3 353/8/3
f 365/6/3 355/6/3 354/6/3
f 365/8/3 354/8/3 364/8/3
f 366/6/3 355/6/3 365/6/3
f 372/2/3 368/2/3 367/2/3
f 373/2/3 368/2/3 372/2/3
f 374/4/3 361/4/3 360/4/3
f 375/4/3 361/4/3 374/4/3
f 378/8/3 370/8/3 369/8/3
f 379/6/3 371/6/3 370/6/3
f 379/8/3 370/8/3 378/8/3
f 380/6/3 371/6/3 379/6/3
f 383/5/3 377/5/3 376/5/3
f 384/5/3 377/5/3 383/5/3
f 385/7/3 382/7/3 381/7/3
f 386/7/3 382/7/3 385/7/3
f 389/2/3 388/2/3 387/2/3
f 390/2/3 388/2/3 389/2/3
f 393/2/3 392/2/3 391/2/3
f 394/2/3 392/2/3 393/2/3
f 397/2/3 396/2/3 395/2/3
f 398/2/3 396/2/3 397/2/3
f 401/2/3 400/2/3 399/2/3
f 402/2/3 400/2/3 401/2/3
f 405/2/3 404/2/3 403/2/3
f 406/2/3 404/2/3 405/2/3
f 409/5/3 408/5/3 407/5/3
f 410/5/3 408/5/3 409/5/3
f 413/5/3 412/5/3 411/5/3
f 414/5/3 412/5/3 413/5/3
f 417/5/3 416/5/3 415/5/3
f 418/5/3 416/5/3 417/5/3
f 421/5/3 420/5/3 419/5/3
f 422/5/3 420/5/3 421/5/3
f 423/5/4 424/5/4 425/5/4
f 425/5/4 424/5/4 426/5/4
f 427/5/4 428/5/4 429/5/4
f 429/5/4 428/5/4 430/5/4
f 431/2/4 432/2/4 435/2/4
f 435/2/4 432/2/4 436/2/4
f 433/2/4 434/2/4 437/2/4
f 437/2/4 434/2/4 438/2/4
f 439/5/4 440/5/4 443/5/4
f 443/5/4 440/5/4 444/5/4
f 441/2/4 442/2/4 445/2/4
f 445/2/4 442/2/4 446/2/4
f 447/2/4 448/2/4 449/2/4
f 449/2/4 448/2/4 450/2/4
f 451/2/4 452/2/4 453/2/4
f 453/2/4 452/2/4 454/2/4
f 455/2/4 456/2/4 457/2/4
f 457/2/4 456/2/4 458/2/4
f 459/2/4 460/2/4 461/2/4
f 461/2/4 460/2/4 462/2/4
f 463/7/4 464/7/4 469/7/4
f 469/7/4 464/7/4 470/7/4
f 465/6/4 466/6/4 473/6/4
f 466/8/4 467/8/4 474/8/4
f 473/6/4 466/6/4 474/6/4
f 467/6/4 468/6/4 475/6/4
f 474/8/4 467/8/4 475/8/4
f 475/6/4 468/6/4 476/6/4
f 477/2/4 478/2/4 483/2/4
f 483/2/4 478/2/4 484/2/4
f 471/4/4 472/4/4 485/4/4
f 485/4/4 472/4/4 486/4/4
f 479/6/4 480/6/4 487/6/4
f 480/8/4 481/8/4 488/8/4
f 487/6/4 480/6/4 488/6/4
f 481/6/4 482/6/4 489/6/4
f 488/8/4 481/8/4 489/8/4
f 489/6/4 482/6/4 490/6/4
f 491/7/4 492/7/4 493/7/4
f 493/7/4 492/7/4 494/7/4
f 495/2/4 496/2/4 497/2/4
f 497/2/4 496/2/4 498/2/4
f 499/4/4 500/4/4 504/4/4
f 504/4/4 500/4/4 505/4/4
f 505/4/4 500/4/4 507/4/4
f 506/4/4 507/4/4 508/4/4
f 507/4/4 500/4/4 509/4/4
f 508/4/4 507/4/4 509/4/4
f 501/4/4 502/4/4 510/4/4
f 502/7/4 503/7/4 511/7/4
f 510/4/4 502/4/4 511/4/4
f 511/7/4 503/7/4 512/7/4
f 513/5/4 514/5/4 516/5/4
f 516/5/4 514/5/4 517/5/4
f 515/2/4 516/2/4 519/2/4
f 519/2/4 516/2/4 520/2/4
f 517/5/4 518/5/4 521/5/4
f 521/5/4 518/5/4 522/5/4
f 520/5/4 521/5/4 523/5/4
f 523/5/4 521/5/4 524/5/4
f 525/5/4 526/5/4 527/5/4
f 527/5/4 526/5/4 528/5/4
f 533/6/5 530/6/5 529/6/5
f 534/6/5 530/6/5 533/6/5
f 535/6/5 532/6/5 531/6/5
f 536/6/5 532/6/5 535/6/5
f 541/4/5 538/4/5 537/4/5
f 542/4/5 538/4/5 541/4/5
f 543/4/5 540/4/5 539/4/5
f 544/4/5 540/4/5 543/4/5
f 545/4/5 541/4/5 537/4/5
f 546/4/5 538/4/5 542/4/5
f 547/4/5 543/4/5 539/4/5
f 548/4/5 540/4/5 544/4/5
f 549/4/5 545/4/5 537/4/5
f 549/4/5 546/4/5 545/4/5
f 550/4/5 538/4/5 546/4/5
f 550/4/5 546/4/5 549/4/5
f 551/4/5 548/4/5 547/4/5
f 551/4/5 547/4/5 539/4/5
f 552/4/5 540/4/5 548/4/5
f 552/4/5 548/4/5 551/4/5
f 555/4/5 554/4/5 553/4/5
f 556/4/5 554/4/5 555/4/5
f 559/4/5 558/4/5 557/4/5
f 560/4/5 558/4/5 559/4/5
f 561/4/5 559/4/5 557/4/5
f 562/4/5 558/4/5 560/4/5
f 563/4/5 561/4/5 557/4/5
f 563/4/5 562/4/5 561/4/5
f 564/4/5 558/4/5 562/4/5
f 564/4/5 562/4/5 563/4/5
f 569/7/5 566/7/5 565/7/5
f 570/7/5 566/7/5 569/7/5
f 571/7/5 568/7/5 567/7/5
f 572/7/5 568/7/5 571/7/5
f 577/2/5 574/2/5 573/2/5
f 580/2/5 576/2/5 575/2/5
f 581/2/5 578/2/5 577/2/5
f 581/2/5 577/2/5 573/2/5
f 582/2/5 578/2/5 581/2/5
f 583/2/5 580/2/5 579/2/5
f 584/2/5 576/2/5 580/2/5
f 584/2/5 580/2/5 583/2/5
f 585/2/5 581/2/5 573/2/5
f 586/2/5 581/2/5 585/2/5
f 587/2/5 576/2/5 584/2/5
f 588/2/5 576/2/5 587/2/5
f 591/2/5 590/2/5 589/2/5
f 592/2/5 590/2/5 591/2/5
f 593/2/5 591/2/5 589/2/5
f 594/2/5 590/2/5 592/2/5
f 595/2/5 593/2/5 589/2/5
f 595/2/5 594/2/5 593/2/5
f 596/2/5 590/2/5 594/2/5
f 596/2/5 594/2/5 595/2/5
f 601/5/5 598/5/5 597/5/5
f 602/5/5 598/5/5 601/5/5
f 603/5/5 600/5/5 599/5/5
f 604/5/5 600/5/5 603/5/5
f 605/5/5 603/5/5 602/5/5
f 606/5/5 603/5/5 605/5/5
f 611/5/5 608/5/5 607/5/5
f 612/5/5 608/5/5 611/5/5
f 613/5/5 610/5/5 609/5/5
f 614/5/5 610/5/5 613/5/5
f 619/5/5 616/5/5 615/5/5
f 620/5/5 616/5/5 619/5/5
f 621/5/5 618/5/5 617/5/5
f 622/5/5 618/5/5 621/5/5
f 627/5/5 624/5/5 623/5/5
f 628/5/5 624/5/5 627/5/5
f 629/5/5 626/5/5 625/5/5
f 630/5/5 626/5/5 629/5/5
f 634/5/5 632/5/5 631/5/5
f 635/5/5 632/5/5 634/5/5
f 638/5/5 634/5/5 633/5/5
f 639/5/5 634/5/5 638/5/5
f 640/5/5 637/5/5 636/5/5
f 641/5/5 637/5/5 640/5/5
f 645/5/5 643/5/5 642/5/5
f 646/5/5 643/5/5 645/5/5
f 649/5/5 645/5/5 644/5/5
f 650/5/5 645/5/5 649/5/5
f 651/5/5 648/5/5 647/5/5
f 652/5/5 648/5/5 651/5/5
f 653/6/6 654/6/6 657/6/6
f 657/6/6 654/6/6 658/6/6
f 655/6/6 656/6/6 659/6/6
f 659/6/6 656/6/6 660/6/6
f 661/6/6 662/6/6 665/6/6
f 665/6/6 662/6/6 666/6/6
f 663/6/6 664/6/6 667/6/6
f 667/6/6 664/6/6 668/6/6
f 661/6/6 665/6/6 669/6/6
f 666/6/6 662/6/6 670/6/6
f 663/6/6 667/6/6 671/6/6
f 668/6/6 664/6/6 672/6/6
f 661/6/6 669/6/6 673/6/6
f 669/6/6 670/6/6 673/6/6
f 670/6/6 662/6/6 674/6/6
f 673/6/6 670/6/6 674/6/6
f 671/6/6 672/6/6 675/6/6
f 663/6/6 671/6/6 675/6/6
f 672/6/6 664/6/6 676/6/6
f 675/6/6 672/6/6 676/6/6
f 677/4/6 678/4/6 679/4/6
f 679/4/6 678/4/6 680/4/6
f 677/4/6 679/4/6 681/4/6
f 680/4/6 678/4/6 682/4/6
f 677/4/6 681/4/6 683/4/6
f 681/4/6 682/4/6 683/4/6
f 682/4/6 678/4/6 684/4/6
f 683/4/6 682/4/6 684/4/6
f 685/2/6 686/2/6 689/2/6
f 689/2/6 686/2/6 690/2/6
f 687/2/6 688/2/6 691/2/6
f 691/2/6 688/2/6 692/2/6
f 693/2/6 694/2/6 699/2/6
f 699/2/6 694/2/6 700/2/6
f 695/7/6 696/7/6 702/7/6
f 702/7/6 696/7/6 703/7/6
f 703/7/6 696/7/6 704/7/6
f 704/7/6 696/7/6 705/7/6
f 697/2/6 698/2/6 707/2/6
f 707/2/6 698/2/6 708/2/6
f 701/7/6 702/7/6 709/7/6
f 702/7/6 703/7/6 709/7/6
f 709/7/6 703/7/6 710/7/6
f 710/7/6 703/7/6 711/7/6
f 705/7/6 706/7/6 712/7/6
f 704/7/6 705/7/6 712/7/6
f 712/7/6 706/7/6 713/7/6
f 713/7/6 706/7/6 714/7/6
f 710/7/6 711/7/6 715/7/6
f 712/7/6 713/7/6 715/7/6
f 711/7/6 712/7/6 715/7/6
f 715/7/6 713/7/6 716/7/6
f 717/2/6 718/2/6 721/2/6
f 721/2/6 718/2/6 722/2/6
f 719/2/6 720/2/6 723/2/6
f 723/2/6 720/2/6 724/2/6
f 725/2/6 726/2/6 729/2/6
f 729/2/6 726/2/6 730/2/6
f 727/2/6 728/2/6 731/2/6
f 731/2/6 728/2/6 732/2/6
f 733/5/6 734/5/6 735/5/6
f 735/5/6 734/5/6 736/5/6
f 736/5/6 734/5/6 737/5/6
f 737/5/6 738/5/6 739/5/6
f 736/5/6 737/5/6 739/5/6
f 739/5/6 738/5/6 740/5/6
f 742/5/6 743/5/6 744/5/6
f 744/5/6 743/5/6 745/5/6
f 740/5/6 741/5/6 746/5/6
f 746/5/6 741/5/6 747/5/6
f 745/5/6 746/5/6 748/5/6
f 748/5/6 746/5/6 749/5/6
f 750/5/6 751/5/6 753/5/6
f 753/5/6 751/5/6 754/5/6
f 752/5/6 753/5/6 756/5/6
f 754/5/6 755/5/6 756/5/6
f 753/5/6 754/5/6 756/5/6
f 752/5/6 756/5/6 758/5/6
f 756/5/6 757/5/6 758/5/6
f 758/5/6 757/5/6 759/5/6
f 759/5/6 757/5/6 760/5/6
f 760/5/6 757/5/6 761/5/6
